<?xml version="1.0" encoding="UTF-8" standalone="no"?><!DOCTYPE svg PUBLIC "-//W3C//DTD SVG 1.1//EN" "http://www.w3.org/Graphics/SVG/1.1/DTD/svg11.dtd"><svg width="100%" height="100%" viewBox="0 0 31 31" version="1.1" xmlns="http://www.w3.org/2000/svg" xmlns:xlink="http://www.w3.org/1999/xlink" xml:space="preserve" style="fill-rule:evenodd;clip-rule:evenodd;stroke-linecap:round;stroke-linejoin:round;stroke-miterlimit:1.5;"><path d="M15.36,6.72c-4.772,0 -8.64,3.868 -8.64,8.64c0,4.769 3.871,8.64 8.64,8.64c4.772,0 8.64,-3.868 8.64,-8.64c0,4.772 -3.868,8.64 -8.64,8.64c-4.769,0 -8.64,-3.871 -8.64,-8.64c0,-4.772 3.868,-8.64 8.64,-8.64Z" style="fill:none;stroke:#52c9ff;stroke-width:1.5px;"/><path d="M15.208,19.837c2.473,0.084 4.546,-1.852 4.629,-4.325c0.084,-2.471 -1.854,-4.546 -4.325,-4.629c-2.473,-0.084 -4.546,1.852 -4.629,4.325c0.083,-2.473 2.156,-4.409 4.629,-4.325c2.471,0.083 4.409,2.158 4.325,4.629c-0.083,2.473 -2.156,4.409 -4.629,4.325Z" style="fill:none;stroke:#52c9ff;stroke-width:1.5px;"/></svg>